<svg xmlns="http://www.w3.org/2000/svg" version="1.1" xmlns:xlink="http://www.w3.org/1999/xlink" xmlns:svgjs="http://svgjs.com/svgjs" width="14.7786mm" height="14.7786mm"><svg xmlns="http://www.w3.org/2000/svg" xml:space="preserve" width="14.7786mm" height="14.7786mm" version="1.1" style="shape-rendering:geometricPrecision; text-rendering:geometricPrecision; image-rendering:optimizeQuality; fill-rule:evenodd; clip-rule:evenodd" viewBox="0 0 1465.68 1465.68" xmlns:xlink="http://www.w3.org/1999/xlink" xmlns:xodm="http://www.corel.com/coreldraw/odm/2003">
 <defs>
  <style type="text/css">
   
    .fil0 {fill:none}
    .fil1 {fill:#0A3871;fill-rule:nonzero}
   
  </style>
 </defs>
 <g id="SvgjsG1002">
  <metadata id="SvgjsMetadata1001"></metadata>
  <g id="SvgjsG1000">
   <rect class="fil0" width="1465.68" height="1465.68"></rect>
   <path class="fil1" d="M732.84 30.24c153.23,0 265.54,30.04 336.93,90.11 71.4,60.07 107.09,135.39 107.09,225.92l0 125.38 0 572.01 0 75.74c0,31.34 -5.65,65.73 -16.97,103.17 -11.32,37.43 -33.52,71.82 -66.61,103.16 -33.09,31.35 -78.36,57.46 -135.82,78.36 -57.46,20.9 -132.34,31.34 -224.62,31.34 -92.28,0 -167.16,-10.44 -224.62,-31.34 -57.46,-20.9 -102.74,-47.01 -135.81,-78.36 -33.09,-31.34 -55.29,-65.73 -66.62,-103.16 -11.32,-37.44 -16.97,-71.83 -16.97,-103.17l0 -122.76c0,-66.17 16.97,-126.24 50.93,-180.22 33.96,-53.97 82.28,-92.28 144.97,-114.92 31.34,-10.45 67.03,-22.64 107.09,-36.57 40.05,-13.93 78.79,-27.43 116.22,-40.49 37.44,-13.06 70.09,-24.81 97.95,-35.26 27.86,-10.44 45.27,-16.54 52.24,-18.29 6.97,-3.48 16.11,-8.27 27.42,-14.36 11.33,-6.1 22.21,-15.23 32.66,-27.42 10.44,-12.19 19.59,-26.12 27.42,-41.79 7.83,-15.67 11.75,-33.96 11.75,-54.85l0 -49.62c0,-17.42 -3.48,-35.27 -10.45,-53.55 -6.95,-18.28 -19.14,-35.26 -36.57,-50.93 -17.41,-15.67 -40.48,-28.29 -69.2,-37.88 -28.74,-9.57 -64.87,-14.36 -108.4,-14.36 -87.06,0 -145.83,17.84 -176.31,53.55 -30.47,35.69 -45.7,78.79 -45.7,129.29l-222.02 0 0 -62.69c0,-43.53 8.27,-84.45 24.81,-122.75 16.54,-38.31 43.09,-71.83 79.66,-100.56 36.57,-28.73 82.71,-51.36 138.43,-67.92 55.73,-16.53 122.76,-24.8 201.12,-24.8zm224.62 692.15c-3.48,17.42 -12.19,30.48 -26.12,39.18 -13.92,8.7 -26.99,14.8 -39.17,18.28 -26.11,8.71 -54.42,18.72 -84.88,30.04 -30.48,11.32 -58.77,21.32 -84.88,30.03 -31.35,10.45 -60.95,20.91 -88.8,31.35 -20.91,8.7 -40.93,20.89 -60.08,36.57 -15.67,13.93 -30.03,31.78 -43.09,53.55 -13.06,21.76 -19.59,49.19 -19.59,82.28 0,66.16 15.66,115.35 47.01,147.56 31.34,32.21 89.67,48.32 175,48.32 87.07,0 146.26,-16.97 177.6,-50.93 31.35,-33.96 47.02,-82.28 47.02,-144.96l0 -321.27z"></path>
  </g>
 </g>
</svg><style>@media (prefers-color-scheme: light) { :root { filter: none; } }
</style></svg>